<mxfile host="app.diagrams.net" modified="2024-02-29T00:53:54.171Z" agent="Mozilla/5.0 (Windows NT 10.0; Win64; x64) AppleWebKit/537.36 (KHTML, like Gecko) Chrome/121.0.0.0 Safari/537.36" version="23.1.8" etag="48nqrIziMOS_vS0ha_-R" type="github">
  <diagram name="Page-1" id="ANoHU9emyUjgjtJzbPtw">
    <mxGraphModel>
      <root>
        <mxCell id="0" />
        <mxCell id="1" parent="0" />
      </root>
    </mxGraphModel>
  </diagram>
</mxfile>
